<svg width="24" height="20" viewBox="0 0 24 20" fill="none" xmlns="http://www.w3.org/2000/svg">
<g opacity="0.3">
<path d="M0 1.5C0 0.671573 0.671573 0 1.5 0H22.5C23.3284 0 24 0.671573 24 1.5C24 2.32843 23.3284 3 22.5 3H1.5C0.671573 3 0 2.32843 0 1.5Z" fill="#D9D9D9"/>
<path d="M0 10.5C0 9.67157 0.671573 9 1.5 9H12.5C13.3284 9 14 9.67157 14 10.5C14 11.3284 13.3284 12 12.5 12H1.5C0.671573 12 0 11.3284 0 10.5Z" fill="#D9D9D9"/>
<path d="M0 18.5C0 17.6716 0.671573 17 1.5 17H22.5C23.3284 17 24 17.6716 24 18.5C24 19.3284 23.3284 20 22.5 20H1.5C0.671573 20 0 19.3284 0 18.5Z" fill="#D9D9D9"/>
</g>
</svg>
