<svg width="25" height="25" viewBox="0 0 25 25" fill="none" xmlns="http://www.w3.org/2000/svg">
<g opacity="0.3">
<path d="M12.2981 25H6.99215C5.83393 24.9961 4.72419 24.5346 3.90474 23.7161C3.08529 22.8975 2.62254 21.7883 2.61734 20.6301C2.61734 18.8697 2.61734 17.1109 2.61734 15.3537C2.61026 15.1695 2.66176 14.9877 2.76444 14.8346C2.86712 14.6815 3.01569 14.5648 3.18881 14.5014C3.35075 14.4322 3.53113 14.4188 3.7015 14.4634C3.87187 14.508 4.02257 14.608 4.12981 14.7477C4.27164 14.9451 4.35216 15.1799 4.36134 15.4227C4.36134 17.1421 4.36134 18.8713 4.36134 20.5858C4.35802 20.9367 4.42495 21.2846 4.55815 21.6093C4.69135 21.9339 4.88814 22.2287 5.13696 22.4761C5.38577 22.7236 5.68158 22.9187 6.00696 23.0501C6.33233 23.1815 6.68071 23.2465 7.03158 23.2412H17.5301C17.8814 23.2478 18.2304 23.1838 18.5563 23.0528C18.8823 22.9219 19.1787 22.7268 19.4278 22.4791C19.6768 22.2314 19.8736 21.9362 20.0063 21.6109C20.139 21.2856 20.205 20.937 20.2003 20.5858C20.2003 18.8467 20.2003 17.1076 20.2003 15.3685C20.1923 15.1527 20.2641 14.9416 20.402 14.7756C20.5399 14.6095 20.7342 14.5001 20.9478 14.4684C21.1613 14.4366 21.3791 14.4848 21.5593 14.6036C21.7395 14.7224 21.8696 14.9036 21.9246 15.1123C21.951 15.227 21.9625 15.3445 21.9591 15.4621V20.6547C21.9462 21.8083 21.4802 22.9104 20.6617 23.7234C19.8432 24.5364 18.7379 24.9949 17.5843 25H12.2981Z" fill="#D8D8D8"/>
<path d="M12.2832 2.0532C12.2188 2.16037 12.1464 2.26248 12.0665 2.35865C8.57515 5.85324 5.08548 9.3462 1.59746 12.8375C1.48258 12.9815 1.328 13.0885 1.15285 13.1454C0.977707 13.2023 0.789696 13.2066 0.612143 13.1577C0.473766 13.1139 0.348448 13.0364 0.2474 12.9322C0.146352 12.828 0.0727383 12.7003 0.0331847 12.5607C-0.00636897 12.421 -0.010634 12.2737 0.020766 12.132C0.052166 11.9903 0.118246 11.8586 0.213091 11.7487C0.27221 11.6797 0.341189 11.6157 0.405235 11.5516L11.5639 0.402749C12.096 -0.13425 12.5493 -0.13425 13.0715 0.402749L24.3041 11.6305C24.3998 11.7081 24.4782 11.8047 24.5345 11.9143C24.5907 12.0239 24.6235 12.1441 24.6308 12.267C24.638 12.39 24.6196 12.5131 24.5766 12.6286C24.5336 12.744 24.4671 12.8493 24.3812 12.9376C24.2953 13.0259 24.1919 13.0953 24.0777 13.1415C23.9635 13.1876 23.8409 13.2094 23.7178 13.2056C23.5947 13.2017 23.4737 13.1723 23.3626 13.1191C23.2515 13.0659 23.1527 12.9901 23.0725 12.8966L19.7913 9.61057L12.4803 2.33892C12.431 2.2601 12.3916 2.19607 12.2832 2.0532Z" fill="#D8D8D8"/>
</g>
</svg>
