<svg width="26" height="25" viewBox="0 0 26 25" fill="none" xmlns="http://www.w3.org/2000/svg">
<path d="M25.6123 0.929516C25.4574 1.11942 25.3125 1.32433 25.1426 1.50423C24.5679 2.08893 23.9832 2.66863 23.3985 3.24333C23.3546 3.28142 23.3245 3.33291 23.3128 3.3898C23.301 3.44669 23.3083 3.50583 23.3335 3.55817C23.5684 4.44272 23.7883 5.33225 24.0132 6.22679C24.348 7.5711 24.6728 8.92045 25.0126 10.2648C25.1362 10.6797 25.1403 11.1211 25.0245 11.5383C24.9087 11.9555 24.6777 12.3316 24.358 12.6235C22.6039 14.3676 20.8598 16.1217 19.1157 17.8708C16.9868 20.0031 14.8562 22.137 12.7239 24.2725C12.3516 24.6787 11.8401 24.93 11.291 24.9763C10.7419 25.0226 10.1955 24.8605 9.76046 24.5224C9.64629 24.4308 9.53783 24.3324 9.43564 24.2276L1.39975 16.1717C1.15904 15.9653 0.965829 15.7092 0.833363 15.4211C0.700896 15.133 0.632324 14.8197 0.632324 14.5026C0.632324 14.1855 0.700896 13.8721 0.833363 13.584C0.965829 13.2959 1.15904 13.0399 1.39975 12.8334L13.0338 1.21935C13.3126 0.914918 13.6705 0.693947 14.0676 0.581001C14.4647 0.468055 14.8853 0.467619 15.2826 0.57972C17.4216 1.11445 19.5754 1.61917 21.7043 2.18888C21.8782 2.26103 22.0713 2.27264 22.2525 2.22188C22.4338 2.17113 22.5927 2.06093 22.7038 1.90899C23.1486 1.40925 23.6433 0.939489 24.1281 0.46973C24.308 0.299817 24.5129 0.154921 24.7028 0H25.0976C25.3327 0.110471 25.5219 0.299582 25.6323 0.534699L25.6123 0.929516ZM21.0547 3.52822L20.8348 3.46325C18.8958 2.96351 16.9518 2.51373 15.0178 2.01898C14.8419 1.96487 14.6541 1.96247 14.4769 2.01209C14.2997 2.06171 14.1405 2.16123 14.0183 2.29881C10.1636 6.16349 6.30391 10.0199 2.43923 13.8679C2.33513 13.939 2.24996 14.0344 2.1911 14.1459C2.13223 14.2574 2.10145 14.3815 2.10145 14.5076C2.10145 14.6336 2.13223 14.7578 2.1911 14.8693C2.24996 14.9807 2.33513 15.0762 2.43923 15.1473L10.4751 23.1831C10.5456 23.2872 10.6406 23.3724 10.7516 23.4313C10.8627 23.4903 10.9865 23.5211 11.1123 23.5211C11.238 23.5211 11.3618 23.4903 11.4729 23.4313C11.584 23.3724 11.6789 23.2872 11.7495 23.1831C15.6175 19.3118 19.4855 15.4388 23.3535 11.5641C23.4835 11.4476 23.5769 11.2958 23.6221 11.1272C23.6674 10.9586 23.6626 10.7805 23.6084 10.6146C23.1086 8.67055 22.6439 6.72158 22.1591 4.77758C22.1591 4.71261 22.1191 4.64761 22.0892 4.55266C21.5195 5.12736 20.9697 5.67207 20.435 6.22679C20.4134 6.25966 20.3999 6.29721 20.3956 6.33629C20.3913 6.37537 20.3962 6.4149 20.41 6.45171C20.5643 6.86715 20.5956 7.31828 20.4999 7.75103C20.3995 8.18572 20.169 8.57943 19.8391 8.87972C19.5091 9.18002 19.0955 9.37265 18.6533 9.43181C18.2111 9.49097 17.7614 9.41391 17.3641 9.21091C16.9668 9.00791 16.6409 8.68862 16.4297 8.29561C16.2186 7.90261 16.1323 7.45456 16.1823 7.01124C16.2324 6.56792 16.4164 6.1504 16.7098 5.81434C17.0032 5.47828 17.3922 5.23965 17.8247 5.1303C18.2572 5.02096 18.7128 5.04611 19.1307 5.20235C19.2456 5.24233 19.3306 5.26227 19.4305 5.15733C19.6304 4.93244 19.8503 4.72759 20.0652 4.5127L21.0547 3.52822ZM18.3561 6.52668C18.2603 6.52469 18.1651 6.5418 18.076 6.57707C17.987 6.61234 17.9059 6.66506 17.8375 6.73208C17.7691 6.79911 17.7147 6.87907 17.6776 6.96737C17.6405 7.05568 17.6214 7.15051 17.6214 7.24628C17.6214 7.43987 17.6973 7.62574 17.8327 7.76402C17.9682 7.90231 18.1525 7.98197 18.3461 7.9859C18.4416 7.98655 18.5364 7.96833 18.6249 7.93221C18.7134 7.89609 18.7939 7.84279 18.8617 7.77543C18.9295 7.70808 18.9833 7.62796 19.0201 7.53971C19.0568 7.45147 19.0757 7.35687 19.0757 7.26129C19.0777 7.166 19.0605 7.07125 19.0251 6.98275C18.9898 6.89425 18.9369 6.8138 18.8697 6.74617C18.8026 6.67854 18.7225 6.62515 18.6342 6.58915C18.546 6.55315 18.4514 6.53526 18.3561 6.53663V6.52668Z" fill="white"/>
<path d="M7.07671 15.2322C6.97691 15.2488 6.87478 15.2445 6.77669 15.2198C6.6786 15.1951 6.58668 15.1504 6.50668 15.0884C6.42669 15.0265 6.36032 14.9487 6.31178 14.86C6.26324 14.7712 6.23354 14.6734 6.22457 14.5727C6.2156 14.4719 6.22755 14.3703 6.25965 14.2744C6.29175 14.1785 6.34329 14.0902 6.41109 14.0151C6.47889 13.9401 6.56147 13.8798 6.65364 13.8381C6.74582 13.7964 6.84561 13.7743 6.94677 13.773L9.68538 13.4681L14.7978 12.8984L16.1771 12.7485C16.2725 12.738 16.3692 12.7464 16.4614 12.7732C16.5536 12.8001 16.6397 12.8448 16.7146 12.9049C16.7896 12.965 16.8519 13.0392 16.8982 13.1235C16.9444 13.2077 16.9736 13.3002 16.9841 13.3956C16.9946 13.4911 16.9862 13.5878 16.9594 13.68C16.9326 13.7722 16.8878 13.8583 16.8277 13.9332C16.7676 14.0082 16.6933 14.0705 16.6091 14.1168C16.5249 14.163 16.4325 14.1922 16.337 14.2027L10.5949 14.8374L7.32658 15.2072L7.07671 15.2322Z" fill="white"/>
<path d="M12.1341 15.4221C12.5686 15.4202 12.994 15.5473 13.3562 15.7874C13.7184 16.0275 14.0011 16.3697 14.1686 16.7707C14.336 17.1717 14.3806 17.6133 14.2966 18.0397C14.2127 18.4661 14.0041 18.8579 13.6972 19.1655C13.3902 19.4731 12.9989 19.6827 12.5727 19.7676C12.1465 19.8525 11.7048 19.8089 11.3034 19.6424C10.902 19.4759 10.5591 19.1939 10.3182 18.8323C10.0773 18.4706 9.94922 18.0456 9.9502 17.611C9.95282 17.0322 10.1836 16.4777 10.5924 16.0679C11.0013 15.6581 11.5552 15.4261 12.1341 15.4221ZM12.8737 17.611C12.8711 17.4188 12.7932 17.2352 12.6568 17.0997C12.5204 16.9643 12.3363 16.8877 12.1441 16.8864C11.9506 16.8864 11.765 16.9633 11.6282 17.1001C11.4913 17.2369 11.4144 17.4225 11.4144 17.616C11.4144 17.8095 11.4913 17.9951 11.6282 18.1319C11.765 18.2688 11.9506 18.3456 12.1441 18.3456C12.3407 18.347 12.5299 18.2705 12.6703 18.1328C12.8108 17.9952 12.8911 17.8076 12.8937 17.611H12.8737Z" fill="white"/>
<path d="M11.1049 12.5586C10.6714 12.5576 10.2479 12.4282 9.88791 12.1868C9.52789 11.9453 9.24747 11.6027 9.08205 11.202C8.91662 10.8013 8.87361 10.3606 8.95842 9.9355C9.04323 9.51039 9.25206 9.11997 9.55858 8.81345C9.86509 8.50693 10.2555 8.29804 10.6807 8.21323C11.1058 8.12842 11.5464 8.17146 11.9471 8.33689C12.3478 8.50232 12.6905 8.78274 12.9319 9.14275C13.1734 9.50276 13.3028 9.92624 13.3038 10.3597C13.3064 10.6492 13.2514 10.9363 13.1418 11.2043C13.0323 11.4723 12.8704 11.7158 12.6657 11.9205C12.4609 12.1252 12.2175 12.2871 11.9495 12.3966C11.6815 12.5062 11.3944 12.5613 11.1049 12.5586ZM11.1049 11.0943C11.2054 11.1027 11.3066 11.0901 11.4021 11.0574C11.4975 11.0246 11.5851 10.9724 11.6593 10.9041C11.7336 10.8357 11.7928 10.7527 11.8334 10.6603C11.8739 10.5679 11.8948 10.4681 11.8948 10.3672C11.8948 10.2663 11.8739 10.1665 11.8334 10.0741C11.7928 9.9817 11.7336 9.89872 11.6593 9.83039C11.5851 9.76205 11.4975 9.70984 11.4021 9.67708C11.3066 9.64433 11.2054 9.63177 11.1049 9.64012C11.0043 9.63177 10.9031 9.64433 10.8077 9.67708C10.7123 9.70984 10.6246 9.76205 10.5504 9.83039C10.4762 9.89872 10.4169 9.9817 10.3764 10.0741C10.3359 10.1665 10.3149 10.2663 10.3149 10.3672C10.3149 10.4681 10.3359 10.5679 10.3764 10.6603C10.4169 10.7527 10.4762 10.8357 10.5504 10.9041C10.6246 10.9724 10.7123 11.0246 10.8077 11.0574C10.9031 11.0901 11.0043 11.1027 11.1049 11.0943Z" fill="white"/>
</svg>
