<svg width="25" height="25" viewBox="0 0 25 25" fill="none" xmlns="http://www.w3.org/2000/svg">
<g opacity="0.3">
<path d="M6.19522 5.8344C6.511 7.17282 7.78592 12.569 8.10587 13.9623C8.14273 14.1203 8.19768 14.171 8.36113 14.171C12.4755 14.1659 16.5896 14.1643 20.7035 14.1662C21.1542 14.1662 21.4505 13.9512 21.5645 13.5199C22.1511 11.3003 22.7321 9.0789 23.3076 6.85561C23.4467 6.31648 23.0398 5.83787 22.4611 5.83648C21.0985 5.83161 19.736 5.83648 18.3734 5.83301C17.7474 5.83301 17.3461 5.27649 17.5485 4.71997C17.6021 4.56231 17.7033 4.42515 17.838 4.32735C17.9728 4.22956 18.1346 4.17594 18.3011 4.17389C19.7506 4.16832 21.2008 4.14258 22.6496 4.18154C24.1958 4.22328 25.3114 5.76414 24.9219 7.28552C24.3571 9.4935 23.7808 11.6982 23.1928 13.8997C22.8652 15.131 21.9297 15.835 20.6555 15.8357C16.0552 15.8357 11.4549 15.8357 6.85459 15.8357C6.73345 15.8299 6.61204 15.8365 6.49222 15.8552C6.299 15.8948 6.12629 16.0022 6.00526 16.1579C5.88422 16.3137 5.82283 16.5075 5.83215 16.7046C5.84654 16.9054 5.93106 17.0947 6.07093 17.2394C6.2108 17.3841 6.39711 17.475 6.59724 17.4962C6.69184 17.5053 6.78782 17.5011 6.88311 17.5011H20.6576C20.7701 17.4959 20.8829 17.502 20.9942 17.5192C21.187 17.5645 21.3574 17.6769 21.4749 17.8363C21.5925 17.9957 21.6496 18.1917 21.636 18.3893C21.6223 18.5869 21.5389 18.7732 21.4006 18.9149C21.2622 19.0567 21.078 19.1446 20.8808 19.163C20.8377 19.1665 20.7939 19.163 20.7508 19.163C16.0721 19.163 11.3937 19.163 6.71548 19.163C5.45447 19.163 4.41673 18.2934 4.21155 17.0914C4.15505 16.7702 4.16242 16.441 4.23324 16.1227C4.30407 15.8044 4.43695 15.5031 4.6243 15.2362C4.81165 14.9693 5.04977 14.7419 5.32506 14.5672C5.60034 14.3924 5.90738 14.2736 6.22861 14.2176C6.29399 14.2058 6.35937 14.1912 6.44631 14.1738C6.26964 13.4142 4.36526 5.32101 3.5946 2.01181C3.53409 1.74886 3.44924 1.64729 3.15989 1.65703C2.41427 1.68347 1.66727 1.66747 0.920954 1.66538C0.373565 1.66538 -0.00550385 1.31408 6.04543e-05 0.82156C0.00562476 0.329041 0.379129 0.000695648 0.915389 0C1.96565 0 3.01592 0 4.06618 0C4.59548 0 4.87718 0.230259 5.00098 0.754082C5.26807 1.88312 5.53376 3.01215 5.80642 4.16276C5.91492 4.16276 9.78211 4.16276 11.6135 4.16276C12.2582 4.16276 12.6783 4.75753 12.43 5.31753C12.2735 5.67092 11.9849 5.83022 11.5954 5.82953C9.956 5.833 6.38093 5.8344 6.19522 5.8344ZM13.9463 7.77317C13.5839 7.4323 13.0873 7.42534 12.7548 7.75369C12.4224 8.08203 12.421 8.59194 12.7653 8.94325C13.3064 9.49559 13.8529 10.0414 14.4047 10.5808C14.7469 10.9147 15.2358 10.9238 15.5759 10.594C16.1435 10.0458 16.7013 9.48771 17.2494 8.91959C17.3264 8.84233 17.3871 8.75046 17.4281 8.64938C17.4691 8.5483 17.4895 8.44005 17.4881 8.33099C17.4866 8.22192 17.4634 8.11424 17.4198 8.01427C17.3762 7.9143 17.3131 7.82405 17.2341 7.74882C17.0798 7.59918 16.8737 7.51486 16.6587 7.51343C16.4437 7.51201 16.2365 7.59358 16.0802 7.74117C16.0072 7.80725 15.9376 7.87682 15.8284 7.98117C15.8284 7.82325 15.8284 4.8584 15.8284 3.46989C15.8329 3.35741 15.8235 3.2448 15.8006 3.13459C15.7523 2.93633 15.6327 2.76281 15.4647 2.64717C15.2966 2.53153 15.0918 2.48187 14.8894 2.50769C14.687 2.53351 14.5012 2.63299 14.3676 2.78713C14.2339 2.94127 14.1617 3.13926 14.1647 3.34328C14.1598 4.77562 14.1647 7.82534 14.1647 7.98047C14.0583 7.8803 14.0026 7.82395 13.9463 7.77317ZM9.15682 24.9988C9.65095 24.9999 10.1343 24.8544 10.5458 24.5808C10.9572 24.3071 11.2783 23.9176 11.4684 23.4614C11.6586 23.0052 11.7092 22.5029 11.6138 22.018C11.5185 21.5331 11.2816 21.0873 10.9329 20.7371C10.5843 20.3868 10.1397 20.1479 9.65525 20.0504C9.17083 19.9529 8.66838 20.0012 8.21144 20.1894C7.7545 20.3775 7.3636 20.6969 7.08816 21.1072C6.81272 21.5175 6.66512 22.0003 6.66401 22.4945C6.66401 23.1567 6.92629 23.792 7.39346 24.2614C7.86064 24.7307 8.49467 24.9959 9.15682 24.9988ZM8.33191 22.5153C8.32847 22.3498 8.37434 22.1869 8.46368 22.0475C8.55303 21.9081 8.68181 21.7984 8.83366 21.7324C8.98551 21.6664 9.15356 21.647 9.31643 21.6768C9.47931 21.7066 9.62965 21.7841 9.74834 21.8996C9.86702 22.015 9.94869 22.1632 9.98296 22.3252C10.0172 22.4872 10.0025 22.6558 9.94076 22.8094C9.87899 22.963 9.77292 23.0948 9.63605 23.188C9.49918 23.2812 9.33769 23.3316 9.17213 23.3327C8.95278 23.3342 8.74166 23.2493 8.58443 23.0964C8.42719 22.9434 8.33648 22.7347 8.33191 22.5153ZM18.2997 20.0013C17.8066 20.0073 17.3263 20.1591 16.9193 20.4376C16.5123 20.7161 16.1967 21.1088 16.0124 21.5662C15.828 22.0237 15.7831 22.5254 15.8833 23.0084C15.9835 23.4913 16.2243 23.9338 16.5754 24.2801C16.9266 24.6264 17.3723 24.8611 17.8564 24.9547C18.3406 25.0482 18.8417 24.9963 19.2965 24.8056C19.7512 24.615 20.1395 24.294 20.4122 23.8831C20.685 23.4722 20.8301 22.9898 20.8293 22.4965C20.8282 22.1663 20.7617 21.8395 20.6337 21.535C20.5057 21.2305 20.3188 20.9543 20.0837 20.7224C19.8486 20.4905 19.5699 20.3074 19.2637 20.1836C18.9575 20.0598 18.6299 19.9979 18.2997 20.0013ZM18.3261 23.3327C18.1605 23.3327 17.9986 23.2834 17.8611 23.1911C17.7235 23.0987 17.6166 22.9676 17.5538 22.8143C17.491 22.661 17.4753 22.4924 17.5086 22.3302C17.5419 22.1679 17.6227 22.0192 17.7408 21.903C17.8588 21.7868 18.0088 21.7083 18.1715 21.6776C18.3343 21.6469 18.5025 21.6654 18.6548 21.7306C18.807 21.7958 18.9365 21.9048 19.0266 22.0438C19.1167 22.1828 19.1634 22.3455 19.1608 22.5112C19.1573 22.7303 19.0678 22.9392 18.9117 23.0929C18.7555 23.2466 18.5452 23.3327 18.3261 23.3327Z" fill="white"/>
</g>
</svg>
