<svg width="13" height="11" viewBox="0 0 13 11" fill="none" xmlns="http://www.w3.org/2000/svg">
<path fill-rule="evenodd" clip-rule="evenodd" d="M12.8982 3.78453L7.54554 11.0098L0 1.18763C0.350494 0.883638 0.744379 0.633615 1.16863 0.445806C1.86803 0.135418 2.59744 -0.030123 3.36513 0.00453695C4.00972 0.0294215 4.63842 0.211641 5.19641 0.5353C5.86666 0.920749 6.43976 1.42888 7.01316 1.93728L7.01318 1.93729C7.13238 2.04298 7.2516 2.14868 7.3717 2.25329C7.46936 2.33832 7.56672 2.42402 7.66414 2.50978L7.66425 2.50987L7.66425 2.50988C8.14111 2.92966 8.61957 3.35084 9.14402 3.70177C10.3163 4.48549 11.5526 4.48239 12.7885 3.80988C12.8185 3.79385 12.8475 3.77677 12.8775 3.75815L12.8982 3.78299V3.78453ZM7.55897 7.07934C7.55897 6.98571 7.3955 6.00333 7.3955 6.00333C7.39942 5.9892 7.40776 5.9767 7.41929 5.96764C7.43998 5.95419 7.4793 5.97074 7.49585 6.01937C7.50907 6.05862 7.51963 6.09871 7.52743 6.13938L7.67588 7.04054C7.68627 7.07646 7.70859 7.10775 7.73915 7.12929C7.76971 7.15082 7.80669 7.16131 7.844 7.15901C7.92947 7.14854 8.01162 7.1194 8.08457 7.07365C8.15869 7.01436 8.15938 6.92603 8.15983 6.86883L8.1601 6.85017C8.16165 6.79533 8.11819 5.90504 8.11819 5.90504C8.11564 5.82856 8.09084 5.75449 8.04681 5.69191C8.02606 5.66542 7.98101 5.59411 7.92209 5.50083C7.78421 5.28254 7.57035 4.94397 7.41414 4.77834C7.24695 4.62814 7.06555 4.49456 6.8725 4.37949C6.85755 4.36592 6.83895 4.35703 6.819 4.3539C6.79905 4.35078 6.77863 4.35356 6.76025 4.3619C6.59128 4.44256 6.41196 4.49949 6.2274 4.53106C6.09135 4.54762 5.78872 4.49226 5.67336 4.31534C5.61665 4.23762 5.58101 4.14656 5.5699 4.05099C5.56909 4.03361 5.57282 4.01632 5.58071 4.00081C5.5886 3.9853 5.60038 3.97211 5.61491 3.96254C5.66302 3.93408 6.23569 3.57041 6.36916 3.42401C6.16621 3.38736 5.9663 3.33548 5.77114 3.26882C5.73078 3.25237 5.692 3.23228 5.65528 3.20881L5.90772 3.00188C5.91797 2.99356 5.92496 2.98189 5.92742 2.96891C5.92988 2.95594 5.92765 2.94251 5.92116 2.93101C5.80804 2.72964 5.70565 2.52242 5.61441 2.31024L3.42669 3.95219C3.42669 3.95219 3.42668 3.96357 3.4303 3.98478C3.54894 4.20619 3.67585 4.41794 3.81104 4.62004C3.81544 4.62649 3.82115 4.63197 3.82778 4.6361C3.83441 4.64024 3.84182 4.64295 3.84956 4.64407C3.85729 4.64519 3.86517 4.64469 3.8727 4.6426C3.88023 4.64051 3.88725 4.63688 3.89331 4.63193L5.01846 3.72043L4.33509 4.4964C4.48563 4.71884 4.63824 5.00906 4.68221 5.31737C4.68221 5.31737 4.98896 5.16891 5.13743 5.19115C5.21908 5.20399 5.2945 5.2426 5.35264 5.30134C5.35264 5.30134 5.54663 5.54603 5.40902 5.75812C5.40902 5.75812 5.62838 5.7483 5.74684 5.88073C5.7965 5.93274 5.82775 5.99958 5.83588 6.07103C5.84401 6.14248 5.82854 6.21463 5.79183 6.27647C5.79183 6.27647 6.04688 6.27337 6.10896 6.49788C6.13351 6.62045 6.10878 6.74776 6.04015 6.85224C6.00708 6.89973 5.96593 6.94105 5.91858 6.97433C5.92488 7.01667 5.94461 7.05587 5.97488 7.08614C6.00515 7.11641 6.04436 7.13615 6.08671 7.14245C6.11509 7.14368 6.14344 7.13923 6.17009 7.12937C6.19674 7.11951 6.22115 7.10444 6.2419 7.08503C6.25653 7.06673 6.26684 7.04536 6.27203 7.02251C6.27723 6.99967 6.27719 6.97594 6.27191 6.95311L6.1886 6.27751L6.18499 6.23147C6.18499 6.23147 6.19225 6.1906 6.22328 6.19267C6.23477 6.19356 6.24576 6.19774 6.25493 6.20472C6.26411 6.21169 6.27108 6.22116 6.27501 6.23198C6.27501 6.23198 6.37846 6.93656 6.3976 7.0452C6.40171 7.08821 6.4183 7.12909 6.44531 7.16282C6.47233 7.19654 6.50863 7.22165 6.54971 7.23505C6.62824 7.26098 6.71205 7.26668 6.79336 7.2516C6.82631 7.23567 6.85443 7.21128 6.87487 7.18093C6.89532 7.15058 6.90737 7.11534 6.90976 7.07882C6.92786 6.96708 6.79748 6.16008 6.79748 6.16008C6.7941 6.13959 6.79737 6.11856 6.8068 6.10007C6.81715 6.08403 6.8787 6.06696 6.89319 6.11611C6.90494 6.15981 6.91392 6.20422 6.92009 6.24905C6.92888 6.30078 7.03856 7.11866 7.03856 7.11866C7.03856 7.11866 7.0427 7.22884 7.22997 7.26557C7.37896 7.29454 7.44207 7.25885 7.4788 7.23661C7.50353 7.21849 7.52365 7.19482 7.53758 7.16751C7.55151 7.1402 7.55884 7.11 7.55897 7.07934ZM5.01433 6.05038L5.31282 5.89518V5.8926C5.34343 5.87599 5.37782 5.86761 5.41264 5.86828C5.46288 5.86804 5.51231 5.88113 5.55584 5.90621C5.59937 5.93129 5.63545 5.96747 5.66044 6.01106L5.67494 6.04003C5.6902 6.07064 5.69925 6.10396 5.70156 6.13808C5.70386 6.17221 5.69937 6.20645 5.68835 6.23883C5.67733 6.2712 5.66001 6.30108 5.63737 6.32672C5.61474 6.35235 5.58723 6.37325 5.55647 6.38818C5.55647 6.38818 5.34437 6.52475 5.2678 6.55993C5.20573 6.58911 5.13476 6.59306 5.06982 6.57097C5.00489 6.54887 4.95105 6.50245 4.91965 6.44147L4.89172 6.38352C4.87708 6.35374 4.86864 6.32129 4.86691 6.28814C4.86519 6.255 4.8702 6.22184 4.88166 6.19069C4.89313 6.15954 4.9108 6.13105 4.9336 6.10693C4.9564 6.08281 4.98387 6.06357 5.01433 6.05038ZM4.92897 5.35674C4.92897 5.35674 4.70704 5.45038 4.63358 5.484C4.49908 5.54608 4.41114 5.753 4.47839 5.88647L4.49339 5.91596C4.50883 5.94765 4.53039 5.97598 4.55682 5.99932C4.58325 6.02266 4.61403 6.04053 4.6474 6.05193C4.68077 6.06332 4.71603 6.06801 4.75122 6.06571C4.7864 6.06342 4.8208 6.05419 4.85241 6.03856C4.87581 6.02679 4.90647 6.01277 4.94007 5.99741L4.9401 5.9974C5.02608 5.95809 5.13125 5.91002 5.18295 5.86836C5.27141 5.79801 5.37074 5.64178 5.30556 5.50624L5.29056 5.47624C5.25896 5.41247 5.2034 5.36382 5.13602 5.34094C5.06863 5.31806 4.99493 5.32281 4.93104 5.35416L4.92897 5.35674ZM4.07385 5.25737C4.04798 5.17615 4.10231 5.07113 4.16491 4.99871L4.16283 4.99923C4.23463 4.93128 4.32439 4.88532 4.42149 4.86679C4.50584 5.03186 4.55314 5.21335 4.56011 5.39859C4.51651 5.43107 4.46524 5.45168 4.41129 5.45839C4.35733 5.4651 4.30256 5.45768 4.25233 5.43687C4.21011 5.42393 4.17174 5.40078 4.14061 5.36947C4.10947 5.33816 4.08654 5.29966 4.07385 5.25737ZM5.65889 6.44828C5.60457 6.46949 5.44525 6.54502 5.44525 6.54502C5.38694 6.57384 5.34242 6.6246 5.32148 6.68617C5.30053 6.74775 5.30486 6.81512 5.3335 6.87352L5.34747 6.90093C5.40851 7.00077 5.57922 7.0344 5.69769 6.99457C5.75433 6.97074 5.80674 6.9379 5.85288 6.89731C5.89414 6.86282 5.92719 6.81959 5.94965 6.77073C5.97211 6.72187 5.9834 6.66863 5.98272 6.61486L5.97807 6.5802C5.96956 6.53437 5.94452 6.49326 5.90772 6.46465C5.87092 6.43605 5.8249 6.42194 5.77839 6.425C5.73698 6.42547 5.69598 6.43335 5.65735 6.44828H5.65889ZM5.7639 4.02512C5.97186 3.92528 6.67594 3.36349 6.67594 3.36349L6.6723 3.36193C6.68638 3.35248 6.70294 3.34744 6.71989 3.34745C6.73715 3.34754 6.75404 3.35257 6.76854 3.36193C7.09703 3.5135 7.81557 3.83217 7.81557 3.83217C7.83633 3.84945 7.85385 3.8703 7.8673 3.89373C8.14199 4.43329 8.43634 4.64642 8.43634 4.64642L8.65981 4.7385L8.76328 5.53361L8.82226 4.49381C8.82322 4.48041 8.82897 4.4678 8.83847 4.4583C8.84797 4.4488 8.86059 4.44304 8.87399 4.44208C9.12437 4.41414 9.41769 4.3769 9.7229 4.32517L9.77464 7.04778C9.43026 7.09893 9.0833 7.13071 8.73536 7.14297C8.72751 7.14311 8.71972 7.14165 8.71245 7.13867C8.70519 7.13569 8.69861 7.13125 8.69313 7.12562C8.68765 7.12 8.68339 7.11331 8.6806 7.10597C8.67781 7.09863 8.67653 7.0908 8.67689 7.08296L8.69449 6.77257L8.28064 6.80671C8.24236 6.20611 8.26875 5.97539 8.26875 5.97539C8.40894 6.04109 8.49325 5.97901 8.49325 5.97901C8.41477 5.95581 8.34103 5.91885 8.27547 5.86986C8.10217 5.42756 7.51968 4.67539 7.51968 4.67539C7.42346 4.56675 6.8544 4.20463 6.8544 4.20463C6.88711 4.15611 6.90508 4.09915 6.90613 4.04065C6.80607 4.15069 6.68489 4.23946 6.5498 4.30167C6.4147 4.36388 6.26849 4.39826 6.11983 4.40276C5.80479 4.38 5.72097 4.14721 5.72924 4.09238C5.73752 4.03754 5.7639 4.02512 5.7639 4.02512Z" fill="black"/>
</svg>
