<svg width="20" height="20" viewBox="0 0 20 20" fill="none" xmlns="http://www.w3.org/2000/svg">
<path d="M4.95618 4.66752C5.2088 5.73826 6.22873 10.0552 6.48469 11.1699C6.51418 11.2962 6.55814 11.3368 6.6889 11.3368C9.98038 11.3327 13.2717 11.3315 16.5628 11.3329C16.9233 11.3329 17.1604 11.161 17.2516 10.8159C17.7209 9.04027 18.1857 7.26312 18.646 5.48449C18.7573 5.05318 18.4318 4.6703 17.9689 4.66919C16.8788 4.66529 15.7888 4.66919 14.6987 4.6664C14.1979 4.6664 13.8769 4.22119 14.0388 3.77598C14.0817 3.64985 14.1626 3.54012 14.2704 3.46188C14.3783 3.38365 14.5077 3.34076 14.6409 3.33911C15.8005 3.33466 16.9606 3.31407 18.1197 3.34523C19.3566 3.37862 20.2491 4.61131 19.9375 5.82841C19.4857 7.5948 19.0246 9.35859 18.5542 11.1198C18.2922 12.1048 17.5438 12.668 16.5244 12.6686C12.8441 12.6686 9.16391 12.6686 5.48367 12.6686C5.38676 12.664 5.28963 12.6692 5.19377 12.6842C5.0392 12.7158 4.90103 12.8017 4.80421 12.9263C4.70738 13.0509 4.65826 13.206 4.66572 13.3637C4.67723 13.5243 4.74485 13.6757 4.85675 13.7915C4.96864 13.9073 5.11769 13.98 5.27779 13.997C5.35347 14.0042 5.43026 14.0009 5.50649 14.0009H16.526C16.6161 13.9968 16.7063 14.0016 16.7954 14.0154C16.9496 14.0516 17.0859 14.1415 17.18 14.269C17.274 14.3965 17.3197 14.5533 17.3088 14.7114C17.2979 14.8695 17.2311 15.0186 17.1204 15.132C17.0098 15.2453 16.8624 15.3157 16.7047 15.3304C16.6702 15.3332 16.6351 15.3304 16.6006 15.3304C12.8577 15.3304 9.11494 15.3304 5.37239 15.3304C4.36358 15.3304 3.53338 14.6348 3.36924 13.6731C3.32404 13.4161 3.32993 13.1528 3.38659 12.8981C3.44325 12.6435 3.54956 12.4025 3.69944 12.189C3.84932 11.9754 4.03982 11.7936 4.26005 11.6537C4.48027 11.5139 4.7259 11.4189 4.98289 11.3741C5.03519 11.3647 5.08749 11.353 5.15705 11.3391C5.01571 10.7313 3.49221 4.25681 2.87568 1.60945C2.82727 1.39909 2.75939 1.31784 2.52791 1.32563C1.93142 1.34677 1.33381 1.33397 0.736763 1.3323C0.298852 1.3323 -0.00440308 1.05126 4.83634e-05 0.657248C0.00449981 0.263233 0.303303 0.000556518 0.732311 0C1.57252 0 2.41273 0 3.25294 0C3.67639 0 3.90174 0.184207 4.00078 0.603265C4.21445 1.50649 4.42701 2.40972 4.64513 3.3302C4.73194 3.3302 7.82569 3.3302 9.29077 3.3302C9.80658 3.3302 10.1427 3.80603 9.94402 4.25402C9.81882 4.53674 9.58791 4.66418 9.27631 4.66362C7.9648 4.6664 5.10474 4.66752 4.95618 4.66752ZM11.157 6.21853C10.8671 5.94584 10.4698 5.94027 10.2039 6.20295C9.9379 6.46563 9.93679 6.87356 10.2122 7.1546C10.6451 7.59647 11.0823 8.03315 11.5237 8.46464C11.7975 8.73177 12.1887 8.73901 12.4608 8.47521C12.9148 8.03668 13.3611 7.59017 13.7995 7.13568C13.8611 7.07386 13.9097 7.00037 13.9425 6.9195C13.9753 6.83864 13.9916 6.75204 13.9905 6.66479C13.9893 6.57754 13.9708 6.49139 13.9359 6.41142C13.901 6.33144 13.8505 6.25924 13.7873 6.19906C13.6638 6.07934 13.4989 6.01189 13.327 6.01075C13.155 6.00961 12.9892 6.07487 12.8642 6.19293C12.8057 6.2458 12.7501 6.30146 12.6627 6.38493C12.6627 6.2586 12.6627 3.88672 12.6627 2.77591C12.6663 2.68593 12.6588 2.59584 12.6405 2.50767C12.6019 2.34907 12.5062 2.21025 12.3717 2.11774C12.2373 2.02522 12.0734 1.9855 11.9115 2.00615C11.7496 2.02681 11.601 2.10639 11.4941 2.2297C11.3871 2.35301 11.3293 2.51141 11.3318 2.67463C11.3279 3.8205 11.3318 6.26027 11.3318 6.38438C11.2466 6.30424 11.2021 6.25916 11.157 6.21853ZM7.32546 19.999C7.72076 19.9999 8.10745 19.8835 8.43662 19.6646C8.76579 19.4457 9.02267 19.1341 9.17476 18.7691C9.32685 18.4042 9.36732 18.0023 9.29106 17.6144C9.21481 17.2265 9.02524 16.8699 8.74634 16.5897C8.46744 16.3095 8.11173 16.1183 7.7242 16.0403C7.33666 15.9623 6.9347 16.001 6.56915 16.1515C6.2036 16.302 5.89088 16.5575 5.67053 16.8857C5.45018 17.214 5.33209 17.6002 5.33121 17.9956C5.33121 18.5254 5.54103 19.0336 5.91477 19.4091C6.28851 19.7846 6.79573 19.9967 7.32546 19.999ZM6.66553 18.0123C6.66278 17.8798 6.69947 17.7495 6.77095 17.638C6.84242 17.5265 6.94545 17.4387 7.06693 17.3859C7.18841 17.3331 7.32285 17.3176 7.45315 17.3414C7.58345 17.3652 7.70372 17.4273 7.79867 17.5197C7.89362 17.612 7.95895 17.7306 7.98637 17.8602C8.01378 17.9898 8.00203 18.1246 7.95261 18.2475C7.90319 18.3704 7.81834 18.4759 7.70884 18.5504C7.59935 18.625 7.47016 18.6653 7.3377 18.6662C7.16223 18.6674 6.99333 18.5995 6.86754 18.4771C6.74175 18.3547 6.66918 18.1877 6.66553 18.0123ZM14.6397 16.001C14.2453 16.0058 13.861 16.1273 13.5354 16.3501C13.2098 16.5729 12.9574 16.887 12.8099 17.253C12.6624 17.6189 12.6265 18.0204 12.7067 18.4067C12.7868 18.793 12.9795 19.147 13.2604 19.4241C13.5412 19.7012 13.8978 19.8889 14.2852 19.9637C14.6725 20.0385 15.0733 19.9971 15.4372 19.8445C15.801 19.692 16.1116 19.4352 16.3298 19.1065C16.548 18.7777 16.6641 18.3918 16.6635 17.9972C16.6625 17.733 16.6093 17.4716 16.507 17.228C16.4046 16.9844 16.255 16.7635 16.0669 16.5779C15.8788 16.3924 15.6559 16.2459 15.411 16.1469C15.166 16.0479 14.9039 15.9983 14.6397 16.001ZM14.6609 18.6662C14.5284 18.6662 14.3989 18.6267 14.2888 18.5529C14.1788 18.479 14.0933 18.3741 14.043 18.2514C13.9928 18.1288 13.9802 17.994 14.0069 17.8641C14.0335 17.7343 14.0982 17.6153 14.1926 17.5224C14.287 17.4294 14.407 17.3667 14.5372 17.3421C14.6674 17.3175 14.802 17.3323 14.9238 17.3845C15.0456 17.4366 15.1492 17.5239 15.2212 17.6351C15.2933 17.7463 15.3307 17.8764 15.3286 18.0089C15.3258 18.1842 15.2543 18.3514 15.1293 18.4743C15.0044 18.5973 14.8362 18.6662 14.6609 18.6662Z" fill="white"/>
</svg>
