<svg width="15" height="15" viewBox="0 0 15 15" fill="none" xmlns="http://www.w3.org/2000/svg">
<path d="M0 14.5668V7.09687C0.00478859 7.05367 0.00478859 7.00994 0 6.96674C0.0646369 5.93185 0.358243 4.92429 0.859863 4.01679C1.45893 2.84969 2.35881 1.86376 3.46631 1.16059C4.57381 0.457413 5.84884 0.0624789 7.15991 0.0167885C8.36072 -0.0681123 9.56233 0.170083 10.6399 0.70673C11.8947 1.27376 12.965 2.1819 13.7288 3.32758C14.4925 4.47326 14.9191 5.81038 14.96 7.18671C15.0518 8.53185 14.7456 9.87438 14.0798 11.0468C13.5502 12.0526 12.7956 12.9225 11.8745 13.5886C10.9534 14.2546 9.89105 14.699 8.77002 14.8869C8.49002 14.8869 8.19992 14.9668 7.91992 14.9968H0.449951C0.345362 14.9676 0.249638 14.9131 0.171143 14.8381C0.0926472 14.7631 0.0338537 14.67 0 14.5668ZM1.16992 13.8569H7.41992C7.72772 13.8622 8.03534 13.842 8.33984 13.7968C9.24811 13.6937 10.1218 13.3887 10.897 12.9042C11.6721 12.4198 12.3291 11.768 12.8198 10.9968C13.6775 9.75328 14.0346 8.23201 13.8198 6.73676C13.712 5.82358 13.4021 4.94582 12.9126 4.16742C12.4231 3.38903 11.7663 2.72954 10.99 2.23676C9.74918 1.38153 8.23197 1.02454 6.73999 1.23676C5.13567 1.42411 3.66971 2.23611 2.65991 3.49677C1.70486 4.64324 1.19384 6.09493 1.21997 7.58686V13.8268L1.16992 13.8569Z" fill="black"/>
<path d="M7.41971 4.13689C7.96233 4.12522 8.49463 4.28626 8.93973 4.59685C9.23732 4.81041 9.44845 5.12367 9.5347 5.47966C9.62094 5.83566 9.57655 6.21071 9.4097 6.53679C9.22393 6.9219 8.95796 7.26285 8.62967 7.53679L8.14969 7.96672C7.98245 8.13946 7.88302 8.3668 7.86966 8.60686C7.86966 8.74686 7.86966 8.87676 7.86966 9.00676C7.87592 9.08817 7.8519 9.16892 7.80203 9.23357C7.75216 9.29821 7.67997 9.34225 7.59964 9.35686C7.43022 9.37672 7.25905 9.37672 7.08963 9.35686C6.99062 9.34691 6.89887 9.30021 6.83231 9.22624C6.76574 9.15228 6.72927 9.05622 6.72977 8.95671C6.67539 8.61168 6.71238 8.25838 6.83694 7.93205C6.96151 7.60573 7.16927 7.31788 7.43973 7.09685C7.65745 6.93354 7.86441 6.75649 8.0596 6.56682C8.16171 6.45685 8.2342 6.32246 8.26981 6.17668C8.30231 6.08583 8.31348 5.98886 8.30252 5.89299C8.29156 5.79712 8.25875 5.70511 8.20657 5.62395C8.15439 5.54278 8.08416 5.4745 8.0015 5.42473C7.91883 5.37496 7.82591 5.34498 7.72977 5.33684C7.51414 5.30686 7.29525 5.30686 7.07962 5.33684C6.97933 5.34786 6.88241 5.37925 6.79471 5.42912C6.707 5.47899 6.63036 5.54633 6.56961 5.62688L6.4097 5.85686C6.34519 5.96183 6.24339 6.03859 6.12479 6.07195C6.00618 6.1053 5.87958 6.09274 5.76981 6.03679C5.64822 5.99368 5.54592 5.90845 5.48172 5.79656C5.41752 5.68467 5.39557 5.5534 5.41971 5.42668C5.46604 5.17811 5.57733 4.94629 5.74246 4.75481C5.90759 4.56333 6.12059 4.4192 6.35965 4.33684C6.69512 4.1968 7.05628 4.12872 7.41971 4.13689Z" fill="black"/>
<path d="M6.50007 10.877C6.5 10.6709 6.58033 10.4728 6.72419 10.3252C6.86804 10.1776 7.06405 10.0921 7.27008 10.0869C7.46301 10.1087 7.64098 10.2007 7.77033 10.3455C7.89968 10.4903 7.97126 10.6777 7.97126 10.8718C7.97126 11.066 7.89968 11.2534 7.77033 11.3982C7.64098 11.543 7.46301 11.6349 7.27008 11.6567C7.16812 11.6567 7.06704 11.6367 6.97297 11.5974C6.87889 11.5581 6.79362 11.5003 6.72199 11.4277C6.65036 11.3552 6.59383 11.2691 6.55573 11.1746C6.51763 11.08 6.49874 10.9789 6.50007 10.877Z" fill="black"/>
</svg>
