<svg width="20" height="19" viewBox="0 0 20 19" fill="none" xmlns="http://www.w3.org/2000/svg">
<path d="M17.7031 16.3582C17.2626 16.3582 16.8231 16.3646 16.3826 16.3582C16.3248 16.3508 16.2662 16.3648 16.2181 16.3977C16.17 16.4306 16.1356 16.48 16.1215 16.5365C15.8887 17.0751 15.4879 17.5238 14.979 17.8158C14.4701 18.1077 13.8804 18.2272 13.298 18.1563C12.6734 18.0859 12.0923 17.8017 11.6532 17.3519C11.2142 16.902 10.9442 16.3142 10.889 15.6881C10.8337 15.0619 10.9967 14.4359 11.3502 13.9162C11.7038 13.3964 12.2262 13.0149 12.8288 12.8363C13.4665 12.6389 14.1546 12.6834 14.7616 12.9613C15.3686 13.2391 15.852 13.7308 16.1194 14.3425C16.1358 14.4048 16.1745 14.4588 16.2281 14.4946C16.2816 14.5304 16.3464 14.5454 16.4102 14.5367C17.305 14.5283 18.1988 14.5293 19.0936 14.5367C19.3081 14.5371 19.5155 14.6136 19.6789 14.7526C19.8423 14.8916 19.951 15.0842 19.9856 15.2959C20.0203 15.5075 19.9787 15.7247 19.8682 15.9085C19.7577 16.0924 19.5855 16.2311 19.3823 16.2998C19.2529 16.337 19.1188 16.3553 18.9842 16.354C18.5544 16.3625 18.1287 16.3582 17.7031 16.3582Z" fill="#1377E7"/>
<path d="M2.25353 8.17858C2.7004 8.17858 3.14834 8.17222 3.59521 8.17858C3.65643 8.18745 3.71878 8.17354 3.77043 8.1395C3.82208 8.10545 3.85944 8.05364 3.87544 7.99389C4.12354 7.42076 4.56078 6.95011 5.11412 6.66056C5.66746 6.37101 6.3034 6.28009 6.91571 6.40298C7.52802 6.52588 8.07963 6.85515 8.47839 7.33579C8.87715 7.81644 9.09892 8.41935 9.10665 9.04383C9.11438 9.6683 8.90761 10.2765 8.52087 10.7669C8.13413 11.2573 7.59085 11.6001 6.98177 11.7381C6.37268 11.8761 5.73469 11.801 5.17435 11.5252C4.61401 11.2494 4.16525 10.7898 3.90304 10.223C3.87885 10.1449 3.8276 10.0781 3.75852 10.0345C3.68943 9.99093 3.60705 9.97344 3.52622 9.98519C2.63884 9.99474 1.75145 9.99581 0.864072 9.98519C0.644795 9.98024 0.43523 9.89377 0.276264 9.74265C0.117297 9.59153 0.0203322 9.38661 0.00428801 9.16787C-0.0163767 8.95688 0.0380922 8.74537 0.158096 8.5706C0.2781 8.39584 0.455938 8.26904 0.660271 8.21255C0.770509 8.18683 0.8836 8.17541 0.996754 8.17858C1.41603 8.17646 1.83425 8.17858 2.25353 8.17858Z" fill="#1377E7"/>
<path d="M17.2838 2.54172e-05C17.8235 0.00193667 18.3505 0.164017 18.798 0.465727C19.2455 0.767437 19.5933 1.1952 19.7975 1.6948C20.0016 2.1944 20.0529 2.74337 19.9447 3.27212C19.8365 3.80087 19.5739 4.28561 19.1899 4.66492C18.806 5.04424 18.3181 5.30104 17.7881 5.40279C17.2581 5.50454 16.7098 5.44667 16.2127 5.2365C15.7156 5.02632 15.2921 4.67332 14.9958 4.22221C14.6995 3.7711 14.5438 3.24219 14.5484 2.70251C14.5541 1.98179 14.8451 1.29268 15.3578 0.786138C15.8705 0.279593 16.5631 -0.0030861 17.2838 2.54172e-05Z" fill="#1377E7"/>
<path d="M6.35283 3.63129C4.55188 3.63129 2.74988 3.63129 0.946808 3.63129C0.3163 3.63129 -0.114654 3.10056 0.0307663 2.50932C0.0655742 2.34491 0.147744 2.19429 0.26714 2.07602C0.386537 1.95776 0.537938 1.87703 0.702672 1.84379C0.807171 1.82061 0.914107 1.81028 1.02111 1.813C4.58337 1.813 8.14529 1.813 11.7068 1.813C11.8482 1.81114 11.989 1.83155 12.124 1.87351C12.3205 1.94096 12.4875 2.07462 12.5963 2.2516C12.7051 2.42858 12.749 2.63788 12.7205 2.84368C12.6919 3.05701 12.5883 3.25318 12.4282 3.39709C12.2682 3.541 12.0621 3.62327 11.847 3.62916C11.4149 3.63872 10.9819 3.62916 10.5488 3.62916L6.35283 3.63129Z" fill="#1377E7"/>
<path d="M4.56738 14.5346C5.76684 14.5346 6.96629 14.5346 8.16574 14.5346C8.35893 14.5307 8.5483 14.5888 8.70608 14.7004C8.86386 14.8119 8.98176 14.9711 9.0425 15.1545C9.10751 15.3331 9.11152 15.5282 9.05391 15.7093C8.9963 15.8904 8.88031 16.0473 8.72407 16.1555C8.54763 16.2709 8.34346 16.3369 8.13283 16.3465C5.7403 16.3593 3.34883 16.3561 0.956292 16.3529C0.407516 16.3529 0.000976562 15.957 0.000976562 15.4464C0.000976562 14.9358 0.407516 14.5346 0.969029 14.5346C2.16742 14.5346 3.36793 14.5346 4.56738 14.5346Z" fill="#1377E7"/>
<path d="M15.4442 9.98943C14.2447 9.98943 13.0453 9.98943 11.8458 9.98943C11.2206 9.98943 10.8045 9.47356 10.933 8.88445C10.9744 8.69608 11.0757 8.52616 11.2217 8.40009C11.3676 8.27401 11.5505 8.19854 11.7429 8.18495C11.7641 8.18495 11.7853 8.18495 11.8066 8.18495C14.2345 8.18495 16.662 8.18495 19.0892 8.18495C19.2972 8.18006 19.5002 8.2492 19.6619 8.38004C19.8237 8.51087 19.9337 8.6949 19.9724 8.89931C20.0018 9.02773 20.0024 9.16109 19.974 9.28975C19.9456 9.41841 19.889 9.53915 19.8082 9.64326C19.7275 9.74737 19.6246 9.83224 19.5071 9.89174C19.3895 9.95124 19.2602 9.98388 19.1285 9.98731C18.5893 10.0022 18.049 9.99262 17.5098 9.99262L15.4442 9.98943Z" fill="#1377E7"/>
</svg>
