<svg width="15" height="15" viewBox="0 0 15 15" fill="none" xmlns="http://www.w3.org/2000/svg">
<path d="M14.4404 7.72686C14.4427 5.74366 13.6669 3.83872 12.2796 2.42143C12.2113 2.35113 12.1295 2.29521 12.0392 2.25705C11.9489 2.21889 11.852 2.19911 11.754 2.19911C11.656 2.19911 11.5589 2.21889 11.4686 2.25705C11.3783 2.29521 11.2964 2.35113 11.2281 2.42143C11.1546 2.48879 11.0961 2.57074 11.0562 2.66211C11.0163 2.75349 10.996 2.85209 10.9966 2.95178C10.9985 3.13503 11.0634 3.31211 11.1801 3.45341L11.3247 3.6079C12.3637 4.69792 12.9468 6.14375 12.9548 7.64962C12.9537 8.05745 12.9151 8.46433 12.8392 8.86505C12.5939 10.1746 11.8985 11.3572 10.8732 12.208C9.84796 13.0589 8.55735 13.5245 7.22503 13.5243C6.58488 13.5212 5.94957 13.4136 5.34406 13.2059C4.21115 12.8159 3.22915 12.0802 2.53685 11.1023C1.84455 10.1245 1.47691 8.95392 1.48556 7.75583C1.4862 7.43277 1.51208 7.11025 1.5628 6.7912C1.74756 5.48797 2.36586 4.28497 3.31825 3.3764C3.45954 3.2359 3.53931 3.04505 3.5401 2.84581C3.53949 2.74861 3.51954 2.65239 3.48145 2.56297C3.44337 2.47354 3.38792 2.39265 3.31825 2.32487C3.25227 2.25549 3.17317 2.20002 3.08534 2.1619C2.99751 2.12379 2.90271 2.10383 2.80697 2.10303C2.70531 2.10464 2.6052 2.12681 2.51236 2.16826C2.41951 2.20971 2.33604 2.26957 2.26696 2.34418C2.11262 2.49852 1.9583 2.66253 1.80396 2.84581C0.6453 4.1861 0.00521761 5.89725 0 7.66893C0.00450583 8.18701 0.0560808 8.70347 0.154255 9.21218C0.482415 10.8472 1.36748 12.3179 2.6586 13.3733C3.94973 14.4287 5.56708 15.0035 7.23468 14.9999C7.57987 15.0012 7.9248 14.9788 8.26689 14.9326C9.98673 14.6823 11.5589 13.8212 12.696 12.5069C13.8332 11.1926 14.4593 9.51285 14.4597 7.7749L14.4404 7.72686Z" fill="black"/>
<path d="M6.47266 8.12206V8.27631C6.48926 8.44559 6.56357 8.60404 6.68296 8.72519C6.80235 8.84633 6.95952 8.92302 7.12853 8.94208H7.20578C7.36109 8.9427 7.51262 8.89332 7.63769 8.80125C7.76277 8.70918 7.85472 8.57928 7.90028 8.43081C7.93376 8.32476 7.95009 8.21395 7.94856 8.10275V0.819789V0.67519C7.92756 0.49176 7.84072 0.322253 7.70411 0.198059C7.56749 0.0738644 7.39038 0.00347585 7.20578 0C7.10858 0.000603147 7.0126 0.0205517 6.92318 0.0586405C6.83375 0.0967292 6.75263 0.152179 6.68485 0.221845C6.55071 0.373896 6.47546 0.568769 6.47266 0.771511V8.12206Z" fill="black"/>
</svg>
