<svg width="15" height="15" viewBox="0 0 15 15" fill="none" xmlns="http://www.w3.org/2000/svg">
<path d="M7.37998 14.9293C7.16776 14.8623 6.96355 14.7727 6.77051 14.6619C6.54776 14.5008 6.38196 14.273 6.29735 14.0114C6.21274 13.7499 6.2135 13.4682 6.2997 13.2072C6.38395 12.9452 6.54777 12.716 6.76816 12.5512C6.98855 12.3864 7.25475 12.2942 7.52987 12.2875C7.90391 12.266 8.27868 12.266 8.65272 12.2875C8.86895 12.3121 9.07463 12.3946 9.24783 12.5264C9.42103 12.6582 9.55549 12.8343 9.63691 13.0361C9.65233 13.0706 9.67796 13.0995 9.71055 13.1186C9.74314 13.1378 9.78099 13.1465 9.81865 13.1432C10.2358 13.1432 10.6636 13.1432 11.0914 13.1432C11.2679 13.1446 11.4429 13.111 11.6063 13.0445C11.7698 12.9779 11.9184 12.8794 12.0437 12.7552C12.169 12.6309 12.2686 12.483 12.3364 12.3201C12.4043 12.1572 12.4391 11.9827 12.4391 11.8062V11.3782H11.1235C11.0645 11.3782 11.0062 11.3666 10.9517 11.344C10.8972 11.3214 10.8477 11.2883 10.806 11.2466C10.7643 11.2049 10.7312 11.1554 10.7086 11.1009C10.686 11.0464 10.6744 10.9881 10.6744 10.9291V5.63473C10.6728 5.5744 10.6838 5.51438 10.7065 5.45847C10.7292 5.40256 10.7631 5.35179 10.8062 5.30963C10.8494 5.26746 10.901 5.23466 10.9574 5.21327C11.0139 5.19188 11.0739 5.18237 11.1342 5.18533C11.5513 5.18533 11.9684 5.18533 12.3962 5.18533C12.2972 3.96977 11.7445 2.83611 10.8478 2.0095C9.95104 1.18288 8.77609 0.723966 7.55651 0.723966C6.33692 0.723966 5.16197 1.18288 4.26526 2.0095C3.36854 2.83611 2.81583 3.96977 2.71677 5.18533H2.85569C3.23004 5.18533 3.5937 5.18533 3.92527 5.18533C3.98915 5.17887 4.05372 5.18658 4.11432 5.20779C4.17492 5.229 4.23005 5.26317 4.27596 5.30806C4.32187 5.35295 4.35732 5.4075 4.37989 5.46761C4.40246 5.52772 4.41155 5.59213 4.40653 5.65614V10.897C4.41132 10.9614 4.40212 11.026 4.37963 11.0865C4.35714 11.1471 4.32191 11.2022 4.27622 11.2479C4.23054 11.2936 4.17568 11.3288 4.11511 11.3513C4.05454 11.3738 3.9897 11.383 3.92527 11.3782H2.25666C2.1904 11.3849 2.12355 11.3768 2.06082 11.3545C1.99809 11.3321 1.94105 11.2961 1.89396 11.249C1.84687 11.2019 1.81083 11.1448 1.78846 11.0821C1.7661 11.0194 1.75802 10.9525 1.7647 10.8863C1.75935 10.8008 1.75935 10.7151 1.7647 10.6296C1.62232 10.641 1.47935 10.641 1.33697 10.6296C1.0442 10.5786 0.773725 10.4398 0.561685 10.2316C0.349645 10.0234 0.205953 9.75544 0.149626 9.46364C0.0833038 9.21402 0.0333996 8.9604 0 8.70428V7.93422C0 7.93422 0 7.84878 0 7.7953C0.0855662 7.49582 0.128328 7.17483 0.245982 6.87535C0.32716 6.6651 0.45976 6.47847 0.631667 6.33272C0.803574 6.18698 1.00921 6.08673 1.22991 6.04104C1.39035 6.04104 1.56146 6.04104 1.74329 6.04104C1.67927 4.51384 2.22117 3.02332 3.25078 1.89356C4.28038 0.763798 5.7145 0.0863624 7.24106 0.00873828C8.63943 -0.0699343 10.0154 0.384889 11.0914 1.28147C11.8041 1.84939 12.3706 2.57988 12.7428 3.41175C13.115 4.24362 13.2821 5.15258 13.2305 6.06246C13.6225 6.02316 14.0145 6.13883 14.3223 6.38469C14.6301 6.63054 14.8294 6.98704 14.8777 7.37802C14.9314 7.5845 14.9638 7.79606 14.9741 8.00916C15.0468 8.63591 14.966 9.2709 14.7388 9.85951C14.6526 10.0863 14.5084 10.2867 14.3208 10.4405C14.1331 10.5944 13.9085 10.6965 13.6692 10.7366C13.5268 10.7476 13.3836 10.7476 13.2413 10.7366V11.8916C13.2456 12.1864 13.1907 12.4791 13.0799 12.7523C12.9691 13.0254 12.8047 13.2734 12.5963 13.4819C12.3878 13.6903 12.1396 13.8549 11.8664 13.9657C11.5932 14.0766 11.3008 14.1314 11.006 14.1271H9.76512C9.72003 14.1196 9.67375 14.1284 9.63456 14.1519C9.59537 14.1754 9.56588 14.212 9.55126 14.2553C9.43383 14.5318 9.2159 14.7536 8.94153 14.8758C8.81903 14.925 8.69424 14.9679 8.56733 15.0042L7.37998 14.9293ZM2.69536 6.09458V10.5118H3.56178V6.09458H2.69536ZM12.4284 6.09458H11.5622V10.5011H12.4284V6.09458ZM1.79682 6.83252C1.71134 6.82717 1.62561 6.82717 1.54013 6.83252C1.24065 6.83252 1.12304 7.08919 1.04817 7.33519C0.917056 7.75701 0.880433 8.20251 0.941103 8.64005C0.973506 8.91408 1.03832 9.18334 1.13382 9.44223C1.18407 9.56829 1.28118 9.66996 1.40487 9.72581C1.52855 9.78167 1.66902 9.78739 1.79682 9.74174V6.83252ZM13.3162 9.74174C13.4496 9.78705 13.5954 9.7791 13.723 9.71929C13.8506 9.65947 13.9501 9.55237 14.0006 9.42082C14.0474 9.32159 14.0833 9.21781 14.1077 9.11086C14.2039 8.63436 14.2039 8.14332 14.1077 7.66682C14.0674 7.46229 13.9991 7.26427 13.9045 7.0785C13.8472 6.96833 13.7495 6.88466 13.6319 6.84479C13.5143 6.80493 13.3858 6.81201 13.2734 6.86464L13.3162 9.74174ZM7.9683 14.0201H8.39603C8.45451 14.0215 8.51289 14.0112 8.56733 13.9898C8.62178 13.9684 8.67118 13.9364 8.71304 13.8955C8.7549 13.8546 8.78826 13.8058 8.81096 13.7519C8.83367 13.698 8.84545 13.6401 8.84543 13.5816C8.84545 13.5231 8.83367 13.4653 8.81096 13.4114C8.78826 13.3575 8.7549 13.3086 8.71304 13.2677C8.67118 13.2269 8.62178 13.1946 8.56733 13.1732C8.51289 13.1518 8.45451 13.1418 8.39603 13.1432C8.11081 13.1432 7.82222 13.1432 7.52987 13.1432C7.47147 13.1401 7.41291 13.1491 7.35831 13.1701C7.30371 13.191 7.25421 13.2233 7.21286 13.2646C7.17151 13.306 7.13928 13.3557 7.11833 13.4103C7.09739 13.4649 7.0881 13.5232 7.09118 13.5816C7.09118 13.6979 7.13741 13.8093 7.21965 13.8916C7.30189 13.9738 7.41357 14.0201 7.52987 14.0201H7.9683Z" fill="black"/>
</svg>
