<svg width="52" height="50" viewBox="0 0 52 50" fill="none" xmlns="http://www.w3.org/2000/svg">
<path d="M29.8472 8.94459C32.4045 8.1683 34.6498 6.93536 36.8305 5.55631C38.2006 4.69235 39.5618 3.81195 40.9552 2.99913C42.7629 1.94886 44.689 1.28948 46.8123 1.38629C48.7151 1.47396 50.3649 2.23563 52.0004 3.34252C51.5342 3.98182 51.093 4.5919 50.6483 5.20014C49.5167 6.74541 48.3797 8.28703 47.2517 9.83595C46.0698 11.4598 44.4343 12.3931 42.5746 12.9265C37.5532 14.3421 33.4805 12.5612 29.8418 8.94276" fill="#999999"/>
<path fill-rule="evenodd" clip-rule="evenodd" d="M44.7136 13.3647L26.1579 38.8763L0 4.19537C1.21505 3.12202 2.58052 2.23922 4.05124 1.57609C6.47585 0.480158 9.00447 -0.104346 11.6658 0.0180335C13.9004 0.105898 16.0799 0.749289 18.0142 1.89209C20.3378 3.25305 22.3245 5.04717 24.3123 6.84226L24.3123 6.84227L24.3123 6.8423L24.3124 6.84232L24.3124 6.84235L24.3124 6.84237L24.3125 6.8424C24.7257 7.21554 25.1389 7.58873 25.5552 7.95808C25.8939 8.25842 26.2316 8.56112 26.5694 8.86403C28.2225 10.3462 29.8812 11.8334 31.6993 13.0724C35.763 15.8397 40.0491 15.8287 44.3334 13.4542C44.4374 13.3976 44.5379 13.3373 44.6419 13.2715L44.7136 13.3592V13.3647ZM26.2044 24.9981C26.2044 24.6675 25.6377 21.1989 25.6377 21.1989C25.6513 21.149 25.6802 21.1049 25.7202 21.0729C25.7919 21.0254 25.9282 21.0838 25.9856 21.2555C26.0314 21.3941 26.068 21.5357 26.095 21.6793L26.6097 24.8612C26.6457 24.988 26.7231 25.0985 26.829 25.1745C26.935 25.2505 27.0632 25.2876 27.1925 25.2794C27.4888 25.2425 27.7736 25.1396 28.0265 24.9781C28.2834 24.7687 28.2858 24.4568 28.2874 24.2549C28.2876 24.2313 28.2877 24.2092 28.2883 24.189C28.2937 23.9954 28.143 20.8518 28.143 20.8518C28.1342 20.5818 28.0482 20.3203 27.8956 20.0993C27.8237 20.0058 27.6676 19.7542 27.4635 19.4251L27.4633 19.4247L27.4632 19.4246L27.4632 19.4246L27.4632 19.4246C26.9852 18.6538 26.2438 17.4584 25.7023 16.8736C25.1227 16.3433 24.4939 15.8716 23.8246 15.4653C23.7728 15.4174 23.7083 15.386 23.6392 15.375C23.57 15.364 23.4992 15.3738 23.4355 15.4032C22.8497 15.688 22.2281 15.889 21.5883 16.0005C21.1166 16.059 20.0675 15.8635 19.6676 15.2388C19.471 14.9644 19.3475 14.6429 19.3089 14.3055C19.3061 14.2441 19.3191 14.183 19.3464 14.1283C19.3738 14.0735 19.4146 14.0269 19.465 13.9931C19.6318 13.8927 21.617 12.6086 22.0797 12.0917C21.3761 11.9623 20.6831 11.7791 20.0066 11.5437C19.8667 11.4856 19.7322 11.4147 19.6049 11.3318L20.4801 10.6012C20.5156 10.5718 20.5398 10.5306 20.5484 10.4848C20.5569 10.439 20.5492 10.3916 20.5266 10.351C20.1345 9.63992 19.7796 8.90828 19.4632 8.15908L11.8792 13.9566C11.8792 13.9566 11.8791 13.9968 11.8917 14.0717C12.3029 14.8534 12.7429 15.6011 13.2116 16.3147C13.2268 16.3375 13.2466 16.3568 13.2696 16.3714C13.2926 16.386 13.3183 16.3956 13.3451 16.3995C13.3719 16.4035 13.3992 16.4017 13.4253 16.3943C13.4514 16.387 13.4758 16.3741 13.4968 16.3567L17.3973 13.1383L15.0283 15.8781C15.5501 16.6635 16.0792 17.6882 16.2316 18.7769C16.2316 18.7769 17.295 18.2527 17.8097 18.3312C18.0928 18.3765 18.3542 18.5129 18.5558 18.7203C18.5558 18.7203 19.2283 19.5842 18.7512 20.3331C18.7512 20.3331 19.5117 20.2984 19.9223 20.766C20.0945 20.9497 20.2028 21.1856 20.231 21.4379C20.2592 21.6902 20.2056 21.945 20.0783 22.1633C20.0783 22.1633 20.9625 22.1524 21.1777 22.9451C21.2628 23.3779 21.1771 23.8274 20.9392 24.1963C20.8245 24.364 20.6818 24.5099 20.5177 24.6273C20.5395 24.7769 20.608 24.9153 20.7129 25.0222C20.8178 25.129 20.9538 25.1987 21.1005 25.221C21.199 25.2253 21.2972 25.2096 21.3896 25.1748C21.482 25.14 21.5666 25.0868 21.6386 25.0182C21.6893 24.9536 21.725 24.8782 21.743 24.7975C21.761 24.7168 21.7609 24.6331 21.7426 24.5525L21.4538 22.167L21.4413 22.0044C21.4413 22.0044 21.4664 21.8601 21.574 21.8674C21.6138 21.8706 21.6519 21.8853 21.6837 21.91C21.7155 21.9346 21.7397 21.968 21.7533 22.0062C21.7533 22.0062 22.112 24.494 22.1783 24.8776C22.1926 25.0295 22.2501 25.1738 22.3437 25.2929C22.4374 25.412 22.5632 25.5006 22.7056 25.5479C22.9779 25.6395 23.2684 25.6596 23.5503 25.6064C23.6645 25.5501 23.762 25.464 23.8329 25.3568C23.9038 25.2497 23.9455 25.1253 23.9538 24.9963C24.0166 24.6018 23.5646 21.7523 23.5646 21.7523C23.5528 21.68 23.5642 21.6058 23.5969 21.5405C23.6327 21.4838 23.8461 21.4236 23.8964 21.5971C23.9371 21.7514 23.9682 21.9082 23.9896 22.0665C24.0201 22.2492 24.4003 25.137 24.4003 25.137C24.4003 25.137 24.4147 25.526 25.0639 25.6557C25.5804 25.758 25.7992 25.632 25.9265 25.5534C26.0122 25.4895 26.082 25.4059 26.1302 25.3095C26.1785 25.213 26.2039 25.1064 26.2044 24.9981ZM17.383 21.3653L18.4178 20.8173V20.8082C18.5239 20.7495 18.6431 20.7199 18.7639 20.7223C18.938 20.7214 19.1094 20.7677 19.2603 20.8562C19.4112 20.9448 19.5363 21.0725 19.6229 21.2264L19.6731 21.3287C19.7261 21.4368 19.7575 21.5545 19.7654 21.6749C19.7734 21.7954 19.7578 21.9163 19.7196 22.0306C19.6815 22.145 19.6214 22.2505 19.5429 22.341C19.4645 22.4315 19.3691 22.5053 19.2625 22.558C19.2625 22.558 18.5272 23.0402 18.2618 23.1644C18.0466 23.2674 17.8005 23.2814 17.5754 23.2034C17.3503 23.1254 17.1637 22.9615 17.0548 22.7462L16.958 22.5416C16.9072 22.4364 16.878 22.3218 16.872 22.2048C16.866 22.0878 16.8834 21.9707 16.9231 21.8607C16.9629 21.7507 17.0241 21.6501 17.1032 21.5649C17.1822 21.4798 17.2775 21.4118 17.383 21.3653ZM17.0869 18.9159C17.0869 18.9159 16.3176 19.2465 16.0629 19.3652C15.5967 19.5844 15.2918 20.315 15.5249 20.7863L15.577 20.8904C15.6305 21.0023 15.7052 21.1023 15.7968 21.1847C15.8885 21.2671 15.9952 21.3303 16.1108 21.3705C16.2265 21.4107 16.3488 21.4273 16.4707 21.4192C16.5927 21.4111 16.712 21.3785 16.8215 21.3233C16.9027 21.2817 17.009 21.2322 17.1255 21.178L17.1255 21.1779C17.4236 21.0392 17.7882 20.8694 17.9674 20.7223C18.2741 20.4739 18.6184 19.9223 18.3925 19.4437L18.3404 19.3378C18.2309 19.1127 18.0383 18.9409 17.8047 18.8601C17.5711 18.7793 17.3156 18.7961 17.0941 18.9068L17.0869 18.9159ZM14.1227 18.5651C14.0331 18.2784 14.2214 17.9076 14.4384 17.6518L14.4312 17.6537C14.6801 17.4137 14.9913 17.2515 15.3279 17.1861C15.6203 17.7689 15.7843 18.4097 15.8085 19.0638C15.6573 19.1785 15.4796 19.2512 15.2925 19.2749C15.1055 19.2986 14.9156 19.2724 14.7415 19.1989C14.5951 19.1532 14.4621 19.0715 14.3542 18.961C14.2462 18.8504 14.1667 18.7144 14.1227 18.5651ZM19.6177 22.77C19.4294 22.8448 18.877 23.1115 18.877 23.1115C18.6749 23.2133 18.5206 23.3925 18.448 23.6099C18.3753 23.8273 18.3904 24.0652 18.4896 24.2714L18.5381 24.3682C18.7497 24.7207 19.3415 24.8395 19.7522 24.6988C19.9485 24.6147 20.1302 24.4987 20.2902 24.3554C20.4332 24.2337 20.5478 24.081 20.6256 23.9085C20.7035 23.736 20.7426 23.548 20.7403 23.3581L20.7241 23.2357C20.6946 23.0739 20.6079 22.9288 20.4803 22.8278C20.3527 22.7268 20.1932 22.677 20.0319 22.6878C19.8884 22.6894 19.7463 22.7172 19.6123 22.77H19.6177ZM19.9817 14.2143C20.7026 13.8618 23.1434 11.8781 23.1434 11.8781L23.1308 11.8727C23.1796 11.8393 23.237 11.8215 23.2958 11.8215C23.3556 11.8218 23.4142 11.8396 23.4644 11.8727C24.6032 12.4078 27.0941 13.533 27.0941 13.533C27.1661 13.594 27.2268 13.6677 27.2734 13.7504C28.2257 15.6555 29.2461 16.408 29.2461 16.408L30.0208 16.7331L30.3795 19.5406L30.584 15.8692C30.5873 15.8219 30.6072 15.7773 30.6402 15.7438C30.6731 15.7102 30.7168 15.6899 30.7633 15.6865C31.6313 15.5879 32.6481 15.4564 33.7062 15.2737L33.8855 24.8869C32.6917 25.0675 31.4889 25.1797 30.2827 25.223C30.2555 25.2235 30.2285 25.2183 30.2033 25.2078C30.1781 25.1973 30.1553 25.1816 30.1363 25.1618C30.1173 25.1419 30.1026 25.1183 30.0929 25.0924C30.0832 25.0665 30.0788 25.0388 30.08 25.0111L30.1411 23.9152L28.7064 24.0357C28.5737 21.9151 28.6651 21.1004 28.6651 21.1004C29.1511 21.3324 29.4434 21.1132 29.4434 21.1132C29.1713 21.0313 28.9157 20.9008 28.6884 20.7278C28.0877 19.1661 26.0684 16.5103 26.0684 16.5103C25.7348 16.1267 23.762 14.8481 23.762 14.8481C23.8754 14.6768 23.9377 14.4757 23.9414 14.2691C23.5945 14.6576 23.1744 14.9711 22.7061 15.1907C22.2378 15.4104 21.7309 15.5318 21.2155 15.5477C20.1234 15.4673 19.8328 14.6454 19.8615 14.4518C19.8902 14.2581 19.9817 14.2143 19.9817 14.2143Z" fill="#999999"/>
<path d="M5.97383 42.577L7.92856 48.0914L9.94249 42.577H11.3198L8.42357 49.8833H7.32068L4.50684 42.577H5.97383Z" fill="#999999"/>
<path d="M13.4863 43.2456C13.4967 43.4042 13.4601 43.5623 13.3814 43.6995C13.3026 43.8367 13.1852 43.9467 13.0444 44.0153C12.9036 44.0839 12.7459 44.1078 12.5916 44.0842C12.4373 44.0605 12.2935 43.9902 12.1788 43.8824C12.0641 43.7746 11.9838 43.6343 11.9483 43.4796C11.9127 43.3248 11.9235 43.1627 11.9793 43.0143C12.0352 42.8659 12.1334 42.7379 12.2614 42.6469C12.3894 42.556 12.5412 42.5062 12.6972 42.504C12.7974 42.4976 12.8977 42.5119 12.9923 42.5461C13.0869 42.5803 13.1736 42.6336 13.2474 42.703C13.3211 42.7723 13.3803 42.8561 13.4214 42.9494C13.4624 43.0426 13.4845 43.1434 13.4863 43.2456ZM13.3069 49.876H12.0928V44.9279H13.3069V49.876Z" fill="#999999"/>
<path d="M18.1114 45.5561L17.3025 46.2977C17.1988 46.1383 17.0571 46.0084 16.8905 45.9202C16.7239 45.832 16.5379 45.7884 16.3503 45.7936C15.9557 45.7936 15.6419 45.9982 15.6419 46.3178C15.6419 46.7215 16.1799 46.7927 16.7969 46.937C17.5447 47.1197 18.2638 47.39 18.2638 48.411C18.2638 49.4321 17.3671 49.9983 16.1584 49.9983C15.4088 49.9983 14.7721 49.8029 14.2754 49.2367L15.086 48.4622C15.5003 48.9261 15.8249 49.0705 16.2391 49.0705C16.6857 49.0705 17.0497 48.8439 17.0497 48.5042C17.0497 48.0293 16.4615 47.9562 15.8446 47.8028C15.1864 47.6494 14.4278 47.4119 14.4278 46.4018C14.4278 45.1945 15.5415 44.8036 16.3718 44.8036C17.1304 44.8036 17.7581 45.0721 18.1114 45.5561Z" fill="#999999"/>
<path d="M19.2109 49.8759V42.082H20.4268V45.6182H20.4466C20.5861 45.3586 20.7948 45.1443 21.0486 45.0002C21.3024 44.8561 21.5911 44.7879 21.8813 44.8036C23.0649 44.8036 23.6512 45.6073 23.6512 46.7215V49.8759H22.4372V47.3023C22.4372 46.3123 22.1234 45.9105 21.5405 45.9105C20.8232 45.9105 20.4286 46.4164 20.4286 47.158V49.8705L19.2109 49.8759Z" fill="#999999"/>
<path d="M24.3574 44.9278H25.6665L26.7193 48.3983H26.739L27.7217 44.9278H29.038L30.0907 48.3983H30.1104L31.1219 44.9278H32.3468L30.6968 49.8778H29.4935L28.3386 46.495H28.3189L27.2967 49.8778H26.0413L24.3574 44.9278Z" fill="#999999"/>
<path d="M32.75 48.5152C32.75 47.3699 33.6467 46.7927 35.7359 46.7927H36.1108V46.6484C36.1108 46.0712 35.6642 45.7352 34.997 45.7352C34.5171 45.7375 34.0551 45.921 33.7004 46.2502L33.0638 45.6C33.4996 45.147 34.1775 44.8073 35.1279 44.8073C36.7886 44.8073 37.2029 45.7552 37.2029 46.9206V49.8796H36.1108V49.1983H36.0802C35.7359 49.7554 35.1692 50.002 34.5218 50.002C33.5193 49.9983 32.75 49.4211 32.75 48.5152ZM33.9641 48.422C33.9641 48.844 34.3694 49.0705 34.8249 49.0705C35.6552 49.0705 36.039 48.5974 36.039 47.9745V47.6676H35.6803C34.6115 47.6676 33.9641 47.896 33.9641 48.422Z" fill="#999999"/>
<path d="M38.1855 48.5152C38.1855 47.3699 39.0822 46.7927 41.1715 46.7927H41.5462V46.6484C41.5462 46.0712 41.1015 45.7352 40.4326 45.7352C39.9532 45.7372 39.4917 45.9208 39.1378 46.2502L38.4994 45.6C38.9352 45.147 39.613 44.8073 40.5635 44.8073C42.2241 44.8073 42.6385 45.7552 42.6385 46.9206V49.8796H41.5462V49.1983H41.5158C41.1714 49.7554 40.6048 50.002 39.9574 50.002C38.9549 49.9983 38.1855 49.4211 38.1855 48.5152ZM39.3996 48.422C39.3996 48.844 39.8049 49.0705 40.2604 49.0705C41.0907 49.0705 41.4745 48.5974 41.4745 47.9745V47.6676H41.1159C40.0488 47.6676 39.3996 47.896 39.3996 48.422Z" fill="#999999"/>
<path d="M47.3467 45.5561L46.5379 46.2977C46.4342 46.1383 46.2924 46.0084 46.1258 45.9202C45.9592 45.832 45.7733 45.7884 45.5856 45.7936C45.1911 45.7936 44.8773 45.9982 44.8773 46.3178C44.8773 46.7215 45.4243 46.7927 46.0322 46.937C46.78 47.1197 47.4992 47.39 47.4992 48.411C47.4992 49.4321 46.6025 49.9983 45.3938 49.9983C44.6441 49.9983 44.0075 49.8029 43.5107 49.2367L44.3213 48.4622C44.7356 48.9261 45.0602 49.0705 45.4745 49.0705C45.921 49.0705 46.2851 48.8439 46.2851 48.5042C46.2851 48.0293 45.6968 47.9562 45.0799 47.8028C44.4218 47.6494 43.6632 47.4119 43.6632 46.4018C43.6632 45.1945 44.7768 44.8036 45.6072 44.8036C46.3657 44.8036 46.9935 45.0721 47.3467 45.5561Z" fill="#999999"/>
</svg>
