<svg width="15" height="15" viewBox="0 0 15 15" fill="none" xmlns="http://www.w3.org/2000/svg">
<path d="M0 8.73198C0.0402407 8.62802 0.106561 8.53623 0.192502 8.46523C0.278442 8.39424 0.381341 8.34655 0.491023 8.32665C0.757764 8.25197 1.0245 8.15569 1.28057 8.07033C1.34368 8.04612 1.41099 8.03503 1.47854 8.03751C1.54609 8.03999 1.61248 8.05615 1.67365 8.08492C1.73481 8.11369 1.78939 8.15455 1.83437 8.20501C1.87935 8.25546 1.91359 8.31444 1.93518 8.37849C1.95677 8.44254 1.96518 8.51038 1.95992 8.57777C1.95466 8.64515 1.93597 8.7106 1.9047 8.77053C1.87343 8.83046 1.83037 8.88344 1.7781 8.9263C1.72584 8.96917 1.66534 9.00114 1.60045 9.02008L0.779124 9.28682C0.373678 9.41485 0.181384 9.28677 0 8.96668V8.73198Z" fill="black"/>
<path d="M7.50094 0.782832C7.72515 0.777692 7.94601 0.838599 8.13576 0.958142C8.32551 1.07768 8.47575 1.25044 8.56791 1.4549C8.90934 2.14842 9.25077 2.85262 9.63487 3.58883C9.64845 3.63201 9.67554 3.66982 9.71198 3.69667C9.74842 3.72352 9.79253 3.73817 9.83779 3.73835L12.1851 4.07959C12.3966 4.11652 12.5939 4.21078 12.7555 4.35206C12.9172 4.49334 13.0368 4.67647 13.1017 4.88111C13.1666 5.08576 13.1743 5.30417 13.1236 5.5128C13.073 5.72143 12.9659 5.91217 12.8144 6.06426C12.2809 6.59774 11.7474 7.1312 11.1926 7.64335C11.1318 7.6895 11.0863 7.7527 11.0616 7.82491C11.0369 7.89712 11.0342 7.97521 11.054 8.04893C11.1927 8.78514 11.3209 9.53184 11.4489 10.2787C11.4973 10.4915 11.4791 10.7142 11.3971 10.9164C11.315 11.1186 11.1729 11.2908 10.9899 11.4098C10.8204 11.5505 10.6116 11.6353 10.3919 11.6525C10.1721 11.6697 9.95243 11.6186 9.76303 11.5059C9.08018 11.1538 8.3974 10.8017 7.71454 10.4389C7.66301 10.4079 7.60383 10.3913 7.54366 10.3913C7.4835 10.3913 7.42457 10.4079 7.37304 10.4389C6.71152 10.8017 6.03921 11.1324 5.37769 11.5059C5.22467 11.5958 5.05321 11.6494 4.87625 11.6627C4.69929 11.676 4.52161 11.6486 4.35683 11.5827C4.19206 11.5168 4.04466 11.4141 3.92572 11.2824C3.80678 11.1507 3.71953 10.9935 3.6707 10.8229C3.63354 10.6578 3.63354 10.4865 3.6707 10.3214C3.78807 9.53189 3.92664 8.74236 4.06535 7.95281C4.07668 7.91487 4.07672 7.87455 4.06535 7.83663C4.05397 7.79871 4.03161 7.7649 4.00127 7.73947C3.4251 7.18465 2.84909 6.67243 2.2836 6.06426C2.12437 5.91944 2.0127 5.72982 1.9632 5.52036C1.91369 5.31089 1.92864 5.09128 2.00618 4.89049C2.06114 4.68143 2.17835 4.4941 2.34221 4.3531C2.50607 4.21211 2.7087 4.12411 2.92362 4.10095L4.27869 3.89829L5.34565 3.74903C5.37598 3.74088 5.40425 3.72607 5.42823 3.70579C5.4522 3.6855 5.47144 3.66011 5.48449 3.63155C5.84726 2.92735 6.18869 2.21248 6.55146 1.49762C6.62884 1.30275 6.75828 1.13295 6.92578 1.00685C7.09329 0.880753 7.29228 0.803302 7.50094 0.782832ZM4.57747 10.3855C4.57747 10.5456 4.70553 10.6095 4.86557 10.5241C5.62312 10.1293 6.38079 9.73468 7.12766 9.32924C7.24046 9.26152 7.36938 9.22556 7.50094 9.22556C7.6325 9.22556 7.76169 9.26152 7.87449 9.32924C8.62136 9.73468 9.36809 10.1293 10.1256 10.5134C10.1609 10.529 10.1993 10.5371 10.2379 10.5371C10.2765 10.5371 10.3146 10.529 10.3499 10.5134C10.3499 10.5134 10.4137 10.3855 10.4137 10.3214C10.2644 9.46787 10.1257 8.6144 9.9657 7.76083C9.93951 7.64409 9.94444 7.52235 9.98002 7.40812C10.0156 7.2939 10.0805 7.19108 10.1684 7.10986C10.7979 6.52303 11.406 5.91494 12.0142 5.31744C12.0443 5.28885 12.0677 5.25384 12.0824 5.21506C12.0972 5.17628 12.1031 5.13477 12.0996 5.09341C12.0996 5.04007 11.9823 4.9866 11.9183 4.97593C11.0576 4.83367 10.1932 4.70578 9.32541 4.59197C9.22082 4.58318 9.12061 4.54693 9.03445 4.48699C8.94828 4.42706 8.87926 4.34547 8.83465 4.25047C8.57858 3.71699 8.32253 3.18351 8.05579 2.6607C7.92775 2.39396 7.79985 2.12722 7.66114 1.86048C7.64298 1.83061 7.61811 1.80529 7.58847 1.78676C7.55883 1.76823 7.52507 1.75691 7.49026 1.75368C7.49026 1.75368 7.38368 1.8178 7.341 1.86048C7.32085 1.88738 7.30295 1.91576 7.2876 1.94566L6.15656 4.25047C6.12311 4.33777 6.06694 4.41449 5.99375 4.47267C5.92056 4.53084 5.83315 4.5684 5.74055 4.58129L4.12943 4.81599C3.77733 4.86934 3.41456 4.91192 3.06246 4.97593C3.02504 4.98363 2.98948 4.99897 2.95827 5.021C2.92705 5.04303 2.90095 5.07141 2.88116 5.10409C2.88116 5.10409 2.88096 5.23206 2.94498 5.29607C2.9682 5.32638 2.9973 5.35184 3.03042 5.37084L4.84421 7.1419C4.92301 7.21103 4.98242 7.29975 5.01613 7.39901C5.04984 7.49827 5.05686 7.60461 5.03645 7.70743C4.94042 8.24091 4.84439 8.77439 4.75903 9.30787C4.65233 9.70265 4.65216 10.0655 4.57747 10.4176V10.3855Z" fill="black"/>
<path d="M14.4578 9.38284H14.2872L13.3909 9.08405C13.3197 9.07337 13.2517 9.04733 13.1913 9.00799C13.131 8.96865 13.08 8.91673 13.0416 8.85587C13.0031 8.795 12.978 8.72664 12.9684 8.65529C12.9587 8.58394 12.9647 8.51137 12.9856 8.44247C13.0065 8.37357 13.0418 8.30992 13.0895 8.25596C13.1372 8.202 13.1959 8.15911 13.2617 8.12988C13.3275 8.10065 13.3989 8.08584 13.4709 8.08664C13.5429 8.08743 13.6138 8.10363 13.679 8.13431L14.6712 8.45445C14.783 8.49537 14.8767 8.57487 14.9353 8.67847C14.994 8.78207 15.0138 8.90306 14.9913 9.01997C14.9558 9.1314 14.8841 9.22772 14.7874 9.29349C14.6907 9.35925 14.5745 9.39075 14.4578 9.38284Z" fill="black"/>
<path d="M3.58546 1.81798C3.49726 1.82948 3.40755 1.81779 3.32523 1.78411C3.24291 1.75044 3.17089 1.69602 3.11605 1.626L2.51849 0.793732C2.4798 0.7408 2.45202 0.680672 2.43696 0.61686C2.4219 0.553047 2.41977 0.48666 2.43071 0.422013C2.44165 0.357367 2.46556 0.295756 2.50078 0.240452C2.536 0.185149 2.58202 0.137301 2.63597 0.100048C2.68739 0.0610889 2.74612 0.0329671 2.80868 0.0172126C2.87123 0.00145811 2.93614 -0.00160275 2.99988 0.00835597C3.06361 0.0183147 3.12485 0.0412154 3.17961 0.0753018C3.23438 0.109388 3.28163 0.154062 3.31872 0.206849C3.53211 0.48426 3.7349 0.761702 3.92696 1.03911C3.9784 1.11857 4.00563 1.2112 4.00563 1.30585C4.00563 1.40051 3.9784 1.49314 3.92696 1.5726C3.89304 1.63723 3.84452 1.69306 3.78525 1.73566C3.72598 1.77826 3.65753 1.80643 3.58546 1.81798Z" fill="black"/>
<path d="M11.4593 1.81784C11.3708 1.82123 11.2833 1.80019 11.2061 1.75688C11.1289 1.71357 11.0651 1.64971 11.0219 1.57245C10.9719 1.49839 10.9453 1.41096 10.9453 1.3216C10.9453 1.23224 10.9719 1.14507 11.0219 1.07101C11.2353 0.772261 11.4488 0.462747 11.6835 0.174667C11.7646 0.0783968 11.8796 0.0169045 12.0047 0.00300414C12.1298 -0.0108962 12.2554 0.0237853 12.3556 0.0999063C12.4571 0.17096 12.5264 0.279379 12.5484 0.401293C12.5703 0.523206 12.5433 0.648846 12.4731 0.75087C12.2704 1.06029 12.0462 1.35914 11.8328 1.65789C11.7888 1.71351 11.7316 1.75707 11.6663 1.78501C11.6011 1.81296 11.5299 1.8243 11.4593 1.81784Z" fill="black"/>
<path d="M7.99123 13.2879C7.99123 13.4586 7.99123 13.6293 7.99123 13.8C7.99276 13.8658 7.98086 13.9313 7.95606 13.9922C7.93126 14.0532 7.8942 14.1082 7.84718 14.1542C7.80015 14.2003 7.74427 14.2363 7.68281 14.2597C7.62134 14.2832 7.55552 14.2937 7.48979 14.2907C7.35962 14.2907 7.23486 14.239 7.14281 14.1469C7.05077 14.0549 6.99902 13.9301 6.99902 13.8V12.733C7.01653 12.6139 7.07621 12.5051 7.1673 12.4264C7.25839 12.3477 7.3749 12.3045 7.49526 12.3045C7.61561 12.3045 7.73187 12.3477 7.82295 12.4264C7.91404 12.5051 7.97372 12.6139 7.99123 12.733C8.0019 12.9998 7.99123 13.1171 7.99123 13.2879Z" fill="black"/>
</svg>
