<svg width="15" height="15" viewBox="0 0 15 15" fill="none" xmlns="http://www.w3.org/2000/svg">
<path d="M9.43183 14.9573C9.16069 14.9042 8.90753 14.783 8.69598 14.6053C8.49508 14.4264 8.35042 14.193 8.27988 13.9335L6.71209 8.42991C6.70343 8.38324 6.68019 8.34063 6.64569 8.30804C6.61118 8.27546 6.56726 8.25466 6.52018 8.24868L1.07001 6.69156C0.808265 6.63569 0.568201 6.50534 0.378947 6.31608C0.189693 6.12683 0.059337 5.88676 0.00346847 5.62501C-0.00115616 5.60393 -0.00115616 5.58204 0.00346847 5.56096V5.17715C0.0162703 5.11188 0.0341513 5.0475 0.0568479 4.98498C0.119528 4.75762 0.2413 4.55098 0.409933 4.38609C0.578566 4.22121 0.787919 4.1041 1.01664 4.04655L12.4607 0.612297L14.3591 0.0363198C14.4428 0.0008586 14.5352 -0.00889197 14.6245 0.00819801C14.7137 0.025288 14.7957 0.0682815 14.8604 0.132142C14.9231 0.197526 14.9655 0.279888 14.9825 0.368834C14.9995 0.457781 14.9905 0.549741 14.9565 0.633648L10.9569 13.9335C10.9036 14.1964 10.774 14.4377 10.5843 14.6274C10.3946 14.8171 10.1533 14.9467 9.89038 15L9.43183 14.9573ZM12.9939 1.33748L12.8127 1.39085L9.3571 2.4574L1.33665 4.86781C1.02735 4.95313 0.87811 5.12376 0.87811 5.37973C0.87811 5.6357 1.02735 5.79565 1.33665 5.88097L6.73344 7.42741C6.78058 7.4469 6.83268 7.45112 6.88238 7.43965C6.93208 7.42818 6.97692 7.40153 7.01075 7.36336L12.8661 1.49735L12.9939 1.33748ZM13.6126 1.9986C13.5867 2.04287 13.5581 2.08573 13.5272 2.12671L7.67188 7.98204C7.6323 8.01486 7.6048 8.05979 7.59324 8.10989C7.58168 8.15999 7.58689 8.2125 7.60808 8.25935L8.56787 11.6082L9.17587 13.7413C9.19326 13.8117 9.22559 13.8776 9.27091 13.9342C9.31624 13.9909 9.37344 14.0372 9.43834 14.0696C9.50325 14.1021 9.57438 14.12 9.64691 14.1222C9.71944 14.1245 9.79155 14.111 9.85835 14.0827C9.94012 14.0399 10.0113 13.9794 10.0667 13.9056C10.122 13.8318 10.1602 13.7466 10.1784 13.6561C11.2165 10.1934 12.2545 6.72714 13.2926 3.25731C13.3779 2.80936 13.4953 2.40389 13.6126 1.9986Z" fill="black"/>
</svg>
